<svg width="24" height="24" viewBox="0 0 24 24" fill="none" xmlns="http://www.w3.org/2000/svg">
<path d="M24 3.78947V6.31579H20.2105V10.1053H17.6842V6.31579H13.8947V3.78947H17.6842V0H20.2105V3.78947H24ZM13.2632 12.6316C14.3091 12.6316 15.1579 11.7827 15.1579 10.7368C15.1579 9.69095 14.3091 8.8421 13.2632 8.8421C12.2173 8.8421 11.3684 9.69095 11.3684 10.7368C11.3684 11.7827 12.2173 12.6316 13.2632 12.6316ZM17.6842 16.7166L17.0362 15.9966C16.0333 14.8787 14.2825 14.8787 13.2771 15.9966L12.4497 16.9187L6.31579 10.1053L2.52632 14.3154V6.31579H11.3684V3.78947H2.52632C1.13053 3.78947 0 4.92 0 6.31579V21.4737C0 22.8695 1.13053 24 2.52632 24H17.6842C19.08 24 20.2105 22.8695 20.2105 21.4737V12.6316H17.6842V16.7166Z" fill="#E3A74F"/>
</svg>
